# xmcd
#
# Track frame offsets: 
#        150
#        11692
#        21822
#        32268
#        44886
#        57651
#        66452
#        79339
#        89983
#        99159
#        108974
#        120473
#        130469
#        142502
#        154115
#        166528
#        178878
#        191776
#        204057
#        217306
#
# Disc length: 3037 seconds
#
# Revision: 2
# Processed by: cddbd v1.5.2PL0 Copyright (c) Steve Scherf et al.
# Submitted via: ExactAudioCopyFreeDBPlugin 1.0
#
DISCID=1c0bdb14
DTITLE=Various Artist - The Very Best of Vee-Jay Rhythm and Blues [Coll
DTITLE=ectables box set]
DYEAR=2002
DGENRE=Rhythm and Blues
TTITLE0=Gene Chandler - Duke of Earl
TTITLE1=The Spaniels - I Know
TTITLE2=Wade Flemons - Easy Lovin'
TTITLE3=Jerry Butler - He Will Break You Heart
TTITLE4=Jerry Butler - Find Another Girl
TTITLE5=Miss Mello and Heavy Drama - Send Me
TTITLE6=Dee Clark - Ranidrops
TTITLE7=Jerry Butler - I'm a Tellin' You
TTITLE8=Glady's Knight and The Pips - Every Beat of My Heart
TTITLE9=Gene Chandler - Tear for Tear
TTITLE10=The Sheppards - Come to Me
TTITLE11=Dee Clark - Your Friends
TTITLE12=Jerry Butler - Moon River
TTITLE13=Gene Chandler - You Threw a Lucky Punch
TTITLE14=The Sheppards - Glitter in Your Eyes
TTITLE15=Jerry Butler - Make it Easy on Yourself
TTITLE16=Gene Cahndler - Rainbow
TTITLE17=Gene Chandler - Man's Temptation
TTITLE18=Jerry Butler - Need to Belong
TTITLE19=Betty Everett - You're No Good
EXTD=
EXTT0=
EXTT1=
EXTT2=
EXTT3=
EXTT4=
EXTT5=
EXTT6=
EXTT7=
EXTT8=
EXTT9=
EXTT10=
EXTT11=
EXTT12=
EXTT13=
EXTT14=
EXTT15=
EXTT16=
EXTT17=
EXTT18=
EXTT19=
PLAYORDER=
